# MagicaVoxel @ Ephtracy

# group
o 

# material
mtllib Rock.mtl
usemtl palette

# normals
vn -1 0 0
vn 1 0 0
vn 0 0 1
vn 0 0 -1
vn 0 -1 0
vn 0 1 0

# texcoords
vt 0.978516 0.5
vt 0.982422 0.5
vt 0.986328 0.5
vt 0.990234 0.5

# verts
v -0.3 0 0.3
v -0.3 0 0.2
v -0.3 0.1 0.3
v -0.3 0.1 0.2
v -0.2 0 0.2
v -0.2 0 -0.1
v -0.2 0.1 0.2
v -0.2 0.1 -0.1
v -0.1 0 0.4
v -0.1 0 0.3
v -0.1 0 -0.1
v -0.1 0 -0.2
v -0.1 0.1 0.4
v -0.1 0.1 0.3
v -0.1 0.1 0.2
v -0.1 0.1 0
v -0.1 0.1 -0.1
v -0.1 0.1 -0.2
v -0.1 0.2 0.3
v -0.1 0.2 0
v 0 0 0.5
v 0 0 0.4
v 0 0.1 0.5
v 0 0.1 0.4
v 0 0.1 0
v 0 0.1 -0.1
v 0 0.2 0.3
v 0 0.2 0.1
v 0 0.2 0
v 0 0.2 -0.1
v 0 0.3 0.3
v 0 0.3 0.1
v 0 0.3 0
v 0.1 0.1 0.4
v 0.1 0.1 0.3
v 0.1 0.2 0.4
v 0.1 0.2 0.3
v 0.1 0.1 0
v 0.1 0.1 -0.1
v 0.1 0.2 0.2
v 0.1 0.2 0.1
v 0.1 0.2 0
v 0.1 0.2 -0.1
v 0.1 0.3 0.2
v 0.1 0.3 0.1
v 0.1 0.3 0
v 0.2 0 -0.1
v 0.2 0 -0.2
v 0.2 0.1 0.1
v 0.2 0.1 0
v 0.2 0.1 -0.1
v 0.2 0.1 -0.2
v 0.2 0.2 0.3
v 0.2 0.2 0.2
v 0.2 0.2 0.1
v 0.2 0.2 0
v 0.2 0.3 0.3
v 0.2 0.3 0.2
v 0.3 0 0.5
v 0.3 0 0.4
v 0.3 0 0
v 0.3 0 -0.1
v 0.3 0.1 0.5
v 0.3 0.1 0.4
v 0.3 0.1 0.3
v 0.3 0.1 0.1
v 0.3 0.1 0
v 0.3 0.1 -0.1
v 0.3 0.2 0.4
v 0.3 0.2 0.3
v 0.3 0.2 0.1
v 0.4 0 0.4
v 0.4 0 0.1
v 0.4 0 0
v 0.4 0.1 0.4
v 0.4 0.1 0.1
v 0.4 0.1 0
v 0 0 0.5
v 0 0.1 0.5
v 0.3 0 0.5
v 0.3 0.1 0.5
v -0.1 0 0.4
v -0.1 0.1 0.4
v 0 0 0.4
v 0 0.1 0.4
v 0.1 0.1 0.4
v 0.1 0.2 0.4
v 0.3 0 0.4
v 0.3 0.1 0.4
v 0.3 0.2 0.4
v 0.4 0 0.4
v 0.4 0.1 0.4
v -0.3 0 0.3
v -0.3 0.1 0.3
v -0.1 0 0.3
v -0.1 0.1 0.3
v -0.1 0.2 0.3
v 0 0.1 0.3
v 0 0.2 0.3
v 0 0.3 0.3
v 0.1 0.1 0.3
v 0.1 0.2 0.3
v 0.2 0.2 0.3
v 0.2 0.3 0.3
v -0.3 0 0.2
v -0.3 0.1 0.2
v -0.2 0 0.2
v -0.2 0.1 0.2
v 0.1 0.2 0.2
v 0.1 0.3 0.2
v 0.2 0.2 0.2
v 0.2 0.3 0.2
v 0.2 0.1 0.1
v 0.2 0.2 0.1
v 0.3 0.1 0.1
v 0.3 0.2 0.1
v -0.1 0.1 0
v -0.1 0.2 0
v 0 0.1 0
v 0 0.2 0
v 0 0.3 0
v 0.1 0.1 0
v 0.1 0.2 0
v 0.1 0.3 0
v 0.2 0.1 0
v 0.2 0.2 0
v 0.3 0 0
v 0.3 0.1 0
v 0.4 0 0
v 0.4 0.1 0
v -0.2 0 -0.1
v -0.2 0.1 -0.1
v -0.1 0 -0.1
v -0.1 0.1 -0.1
v 0 0.1 -0.1
v 0 0.2 -0.1
v 0.1 0.1 -0.1
v 0.1 0.2 -0.1
v 0.2 0 -0.1
v 0.2 0.1 -0.1
v 0.3 0 -0.1
v 0.3 0.1 -0.1
v -0.1 0 -0.2
v -0.1 0.1 -0.2
v 0.2 0 -0.2
v 0.2 0.1 -0.2
v 0 0 0.5
v 0.3 0 0.5
v -0.1 0 0.4
v 0 0 0.4
v 0.3 0 0.4
v 0.4 0 0.4
v -0.3 0 0.3
v -0.1 0 0.3
v 0 0 0.3
v -0.3 0 0.2
v -0.2 0 0.2
v -0.1 0 0.2
v 0.3 0 0.1
v 0.4 0 0.1
v 0.2 0 0
v 0.3 0 0
v 0.4 0 0
v -0.2 0 -0.1
v -0.1 0 -0.1
v 0.2 0 -0.1
v 0.3 0 -0.1
v -0.1 0 -0.2
v 0.2 0 -0.2
v 0 0.1 0.5
v 0.3 0.1 0.5
v -0.1 0.1 0.4
v 0 0.1 0.4
v 0.1 0.1 0.4
v 0.3 0.1 0.4
v 0.4 0.1 0.4
v -0.3 0.1 0.3
v -0.1 0.1 0.3
v 0 0.1 0.3
v 0.1 0.1 0.3
v 0.3 0.1 0.3
v -0.3 0.1 0.2
v -0.2 0.1 0.2
v -0.1 0.1 0.2
v 0.2 0.1 0.1
v 0.3 0.1 0.1
v 0.4 0.1 0.1
v -0.1 0.1 0
v 0 0.1 0
v 0.1 0.1 0
v 0.2 0.1 0
v 0.3 0.1 0
v 0.4 0.1 0
v -0.2 0.1 -0.1
v -0.1 0.1 -0.1
v 0 0.1 -0.1
v 0.1 0.1 -0.1
v 0.2 0.1 -0.1
v 0.3 0.1 -0.1
v -0.1 0.1 -0.2
v 0.2 0.1 -0.2
v 0.1 0.2 0.4
v 0.3 0.2 0.4
v -0.1 0.2 0.3
v 0 0.2 0.3
v 0.1 0.2 0.3
v 0.2 0.2 0.3
v 0.3 0.2 0.3
v 0.1 0.2 0.2
v 0.2 0.2 0.2
v 0 0.2 0.1
v 0.1 0.2 0.1
v 0.2 0.2 0.1
v 0.3 0.2 0.1
v -0.1 0.2 0
v 0 0.2 0
v 0.1 0.2 0
v 0.2 0.2 0
v 0 0.2 -0.1
v 0.1 0.2 -0.1
v 0 0.3 0.3
v 0.2 0.3 0.3
v 0.1 0.3 0.2
v 0.2 0.3 0.2
v 0 0.3 0.1
v 0.1 0.3 0.1
v 0 0.3 0
v 0.1 0.3 0

# faces
f 3/2/1 2/2/1 1/2/1
f 4/2/1 2/2/1 3/2/1
f 7/4/1 6/4/1 5/4/1
f 8/4/1 6/4/1 7/4/1
f 13/2/1 10/2/1 9/2/1
f 14/2/1 10/2/1 13/2/1
f 17/4/1 12/4/1 11/4/1
f 18/4/1 12/4/1 17/4/1
f 19/3/1 16/3/1 15/3/1
f 19/3/1 15/3/1 14/3/1
f 20/3/1 16/3/1 19/3/1
f 23/4/1 22/4/1 21/4/1
f 24/4/1 22/4/1 23/4/1
f 29/3/1 26/3/1 25/3/1
f 30/3/1 26/3/1 29/3/1
f 31/1/1 28/1/1 27/1/1
f 32/3/1 29/3/1 28/3/1
f 32/1/1 28/1/1 31/1/1
f 33/3/1 29/3/1 32/3/1
f 36/3/1 35/3/1 34/3/1
f 37/3/1 35/3/1 36/3/1
f 38/3/2 39/3/2 42/3/2
f 42/3/2 39/3/2 43/3/2
f 40/1/2 41/1/2 44/1/2
f 41/3/2 42/3/2 45/3/2
f 44/1/2 41/1/2 45/1/2
f 45/3/2 42/3/2 46/3/2
f 47/4/2 48/4/2 51/4/2
f 51/4/2 48/4/2 52/4/2
f 49/3/2 50/3/2 55/3/2
f 55/3/2 50/3/2 56/3/2
f 53/1/2 54/1/2 57/1/2
f 57/1/2 54/1/2 58/1/2
f 59/4/2 60/4/2 63/4/2
f 63/4/2 60/4/2 64/4/2
f 61/1/2 62/1/2 67/1/2
f 67/1/2 62/1/2 68/1/2
f 64/3/2 65/3/2 69/3/2
f 65/1/2 66/1/2 70/1/2
f 69/3/2 65/3/2 70/3/2
f 70/1/2 66/1/2 71/1/2
f 72/4/2 73/4/2 75/4/2
f 73/1/2 74/1/2 76/1/2
f 75/4/2 73/4/2 76/4/2
f 76/1/2 74/1/2 77/1/2
f 80/4/3 79/4/3 78/4/3
f 81/4/3 79/4/3 80/4/3
f 84/2/3 83/2/3 82/2/3
f 85/2/3 83/2/3 84/2/3
f 89/3/3 87/3/3 86/3/3
f 90/3/3 87/3/3 89/3/3
f 91/4/3 89/4/3 88/4/3
f 92/4/3 89/4/3 91/4/3
f 95/2/3 94/2/3 93/2/3
f 96/2/3 94/2/3 95/2/3
f 98/3/3 97/3/3 96/3/3
f 99/3/3 97/3/3 98/3/3
f 101/3/3 99/3/3 98/3/3
f 102/1/3 100/1/3 99/1/3
f 102/3/3 99/3/3 101/3/3
f 103/1/3 100/1/3 102/1/3
f 104/1/3 100/1/3 103/1/3
f 105/2/4 106/2/4 107/2/4
f 107/2/4 106/2/4 108/2/4
f 109/1/4 110/1/4 111/1/4
f 111/1/4 110/1/4 112/1/4
f 113/1/4 114/1/4 115/1/4
f 115/1/4 114/1/4 116/1/4
f 117/3/4 118/3/4 119/3/4
f 119/3/4 118/3/4 120/3/4
f 120/3/4 121/3/4 123/3/4
f 123/3/4 121/3/4 124/3/4
f 122/3/4 123/3/4 125/3/4
f 125/3/4 123/3/4 126/3/4
f 127/1/4 128/1/4 129/1/4
f 129/1/4 128/1/4 130/1/4
f 131/4/4 132/4/4 133/4/4
f 133/4/4 132/4/4 134/4/4
f 135/3/4 136/3/4 137/3/4
f 137/3/4 136/3/4 138/3/4
f 139/1/4 140/1/4 141/1/4
f 141/1/4 140/1/4 142/1/4
f 143/4/4 144/4/4 145/4/4
f 145/4/4 144/4/4 146/4/4
f 150/4/5 148/4/5 147/4/5
f 151/4/5 148/4/5 150/4/5
f 154/2/5 150/2/5 149/2/5
f 155/4/5 152/4/5 151/4/5
f 155/4/5 151/4/5 150/4/5
f 155/2/5 150/2/5 154/2/5
f 156/2/5 154/2/5 153/2/5
f 157/2/5 154/2/5 156/2/5
f 158/4/5 155/4/5 154/4/5
f 158/2/5 154/2/5 157/2/5
f 159/4/5 152/4/5 155/4/5
f 159/4/5 155/4/5 158/4/5
f 159/4/5 158/4/5 157/4/5
f 160/4/5 152/4/5 159/4/5
f 161/4/5 159/4/5 157/4/5
f 162/1/5 160/1/5 159/1/5
f 162/4/5 159/4/5 161/4/5
f 163/1/5 160/1/5 162/1/5
f 164/4/5 161/4/5 157/4/5
f 165/4/5 161/4/5 164/4/5
f 166/1/5 162/1/5 161/1/5
f 166/4/5 161/4/5 165/4/5
f 167/1/5 162/1/5 166/1/5
f 168/4/5 166/4/5 165/4/5
f 169/4/5 166/4/5 168/4/5
f 170/4/6 171/4/6 173/4/6
f 173/4/6 171/4/6 174/4/6
f 174/4/6 171/4/6 175/4/6
f 172/2/6 173/2/6 178/2/6
f 173/4/6 174/4/6 179/4/6
f 178/2/6 173/2/6 179/2/6
f 179/4/6 174/4/6 180/4/6
f 175/4/6 176/4/6 181/4/6
f 177/2/6 178/2/6 182/2/6
f 182/2/6 178/2/6 183/2/6
f 183/2/6 178/2/6 184/2/6
f 181/4/6 176/4/6 186/4/6
f 186/4/6 176/4/6 187/4/6
f 183/4/6 184/4/6 188/4/6
f 185/4/6 186/4/6 191/4/6
f 186/1/6 187/1/6 192/1/6
f 191/4/6 186/4/6 192/4/6
f 192/1/6 187/1/6 193/1/6
f 188/4/6 189/4/6 194/4/6
f 183/4/6 188/4/6 194/4/6
f 194/4/6 189/4/6 195/4/6
f 195/4/6 189/4/6 196/4/6
f 190/4/6 191/4/6 197/4/6
f 191/1/6 192/1/6 198/1/6
f 197/4/6 191/4/6 198/4/6
f 198/1/6 192/1/6 199/1/6
f 195/4/6 196/4/6 200/4/6
f 196/4/6 197/4/6 200/4/6
f 197/4/6 198/4/6 200/4/6
f 200/4/6 198/4/6 201/4/6
f 202/3/6 203/3/6 206/3/6
f 206/3/6 203/3/6 207/3/6
f 207/3/6 203/3/6 208/3/6
f 207/1/6 208/1/6 210/1/6
f 204/3/6 205/3/6 211/3/6
f 209/3/6 210/3/6 212/3/6
f 210/1/6 208/1/6 213/1/6
f 212/3/6 210/3/6 213/3/6
f 213/1/6 208/1/6 214/1/6
f 204/3/6 211/3/6 215/3/6
f 215/3/6 211/3/6 216/3/6
f 212/3/6 213/3/6 217/3/6
f 217/3/6 213/3/6 218/3/6
f 216/3/6 217/3/6 219/3/6
f 219/3/6 217/3/6 220/3/6
f 221/1/6 222/1/6 223/1/6
f 223/1/6 222/1/6 224/1/6
f 221/1/6 223/1/6 225/1/6
f 225/1/6 223/1/6 226/1/6
f 225/3/6 226/3/6 227/3/6
f 227/3/6 226/3/6 228/3/6
